# xmcd
#
# Track frame offsets:
#	150
#	14343
#	27132
#	41688
#	64051
#	85850
#	113331
#	137210
#	163086
#	196977
#
# Disc length: 2955 seconds
#
# Revision: 1
# Processed by: cddbd v1.5.1PL0 Copyright (c) Steve Scherf et al.
# Submitted via: audiograbber 1.83.01
#
DISCID=7b0b890a
DTITLE=Shakey Steve and the BlueCats - Tin Sandwich Special
DYEAR=1999
DGENRE=Blues
TTITLE0=Tin Sandwich Special
TTITLE1=Shake Your Boogie
TTITLE2=Sweet Latin Thing
TTITLE3=Too Hot To Handle
TTITLE4=Europa
TTITLE5=I Ain't Got Nobody
TTITLE6=People Get Ready
TTITLE7=I'm Ready
TTITLE8=Last Night
TTITLE9=Route 66
EXTD=
EXTT0=
EXTT1=
EXTT2=
EXTT3=
EXTT4=
EXTT5=
EXTT6=
EXTT7=
EXTT8=
EXTT9=
PLAYORDER=
